<svg id="_0" data-name="0" xmlns="http://www.w3.org/2000/svg" viewBox="0 0 864.70866 864.70866">
  <defs>
    <style>
      .cls-1 {
        fill: none;
        stroke: #000;
        stroke-linecap: round;
        stroke-linejoin: round;
        stroke-width: 0.70866px;
      }
    </style>
  </defs>
  <title>circles_undistorted_fusion</title>
  <g id="LWPOLYLINE">
    <path class="cls-1" d="M646.18985,475.85031q-1.68814,1.5462-3.49026,2.96063A64.39371,64.39371,0,0,0,590.998,468.69772q-.38793-2.18736-.90824-4.34814A68.83467,68.83467,0,0,1,646.18985,475.85031Z" transform="translate(-0.14567 0.85433)"/>
  </g>
  <g id="LWPOLYLINE-2" data-name="LWPOLYLINE">
    <path class="cls-1" d="M494.10555,550.1644a64.39369,64.39369,0,0,1-34.60912,39.71831q.32358,2.26626.81885,4.503a68.83467,68.83467,0,0,0,38.01-42.83377Q496.19481,550.92243,494.10555,550.1644Z" transform="translate(-0.14567 0.85433)"/>
  </g>
  <g id="LWPOLYLINE-3" data-name="LWPOLYLINE">
    <path class="cls-1" d="M498.32527,351.70939q-2.13046-.62947-4.21972-1.38751a64.39369,64.39369,0,0,1-34.60912,39.71831q.32358,2.26626.81885,4.503A68.83467,68.83467,0,0,0,498.32527,351.70939Z" transform="translate(-0.14567 0.85433)"/>
  </g>
  <g id="LWPOLYLINE-4" data-name="LWPOLYLINE">
    <path class="cls-1" d="M447.979,598.49293a68.83463,68.83463,0,0,1-56.10013-11.50072q1.68815-1.5462,3.49026-2.96063a64.39371,64.39371,0,0,0,51.70163,10.11322Q447.45867,596.33216,447.979,598.49293Z" transform="translate(-0.14567 0.85433)"/>
  </g>
  <g id="LWPOLYLINE-5" data-name="LWPOLYLINE">
    <path class="cls-1" d="M584.85961,401.67q-2.13045-.62948-4.21971-1.38751a64.39369,64.39369,0,0,1-34.60912,39.71831q.32358,2.26626.81885,4.503A68.83462,68.83462,0,0,0,584.85961,401.67Z" transform="translate(-0.14567 0.85433)"/>
  </g>
  <g id="LWPOLYLINE-6" data-name="LWPOLYLINE">
    <path class="cls-1" d="M482.84628,484.48023a68.83465,68.83465,0,0,1,18.09015,54.3345q-2.18313-.68888-4.30911-1.54234a64.3937,64.3937,0,0,0-17.09251-49.83153Q481.23517,486.01121,482.84628,484.48023Z" transform="translate(-0.14567 0.85433)"/>
  </g>
  <g id="LWPOLYLINE-7" data-name="LWPOLYLINE">
    <path class="cls-1" d="M587.47078,488.8541q-2.18313-.68887-4.30911-1.54234a64.3937,64.3937,0,0,0-17.09251-49.83153q1.70034-1.42965,3.31147-2.96063A68.83465,68.83465,0,0,1,587.47078,488.8541Z" transform="translate(-0.14567 0.85433)"/>
  </g>
  <g id="LWPOLYLINE-8" data-name="LWPOLYLINE">
    <path class="cls-1" d="M471.99954,425.51977A64.3937,64.3937,0,0,1,454.907,375.68824q-2.12442-.8529-4.30911-1.54234a68.83465,68.83465,0,0,0,18.09015,54.3345Q470.29843,426.9501,471.99954,425.51977Z" transform="translate(-0.14567 0.85433)"/>
  </g>
  <g id="LWPOLYLINE-9" data-name="LWPOLYLINE">
    <path class="cls-1" d="M500.93643,438.89347q-2.18313-.68887-4.30911-1.54234a64.3937,64.3937,0,0,0-17.09251-49.83153q1.70036-1.42965,3.31147-2.96063A68.83465,68.83465,0,0,1,500.93643,438.89347Z" transform="translate(-0.14567 0.85433)"/>
  </g>
  <g id="LWPOLYLINE-10" data-name="LWPOLYLINE">
    <path class="cls-1" d="M534.51333,448.61105a68.83467,68.83467,0,0,1-56.10013-11.50073q1.68815-1.5462,3.49026-2.96063a64.39371,64.39371,0,0,0,51.70163,10.11322Q533.993,446.45027,534.51333,448.61105Z" transform="translate(-0.14567 0.85433)"/>
  </g>
  <g id="LWPOLYLINE-11" data-name="LWPOLYLINE">
    <path class="cls-1" d="M555.22242,478.441q1.61035-1.5303,3.31147-2.96063a64.3937,64.3937,0,0,1-17.09251-49.83153q-2.12442-.8529-4.30911-1.54234A68.83465,68.83465,0,0,0,555.22242,478.441Z" transform="translate(-0.14567 0.85433)"/>
  </g>
  <g id="LWPOLYLINE-12" data-name="LWPOLYLINE">
    <path class="cls-1" d="M411.79092,401.67a68.83467,68.83467,0,0,1-38.01,42.83377q-.495-2.23507-.81885-4.503a64.39369,64.39369,0,0,0,34.60912-39.71831Q409.65949,401.04024,411.79092,401.67Z" transform="translate(-0.14567 0.85433)"/>
  </g>
  <g id="LWPOLYLINE-13" data-name="LWPOLYLINE">
    <path class="cls-1" d="M569.38063,534.44086a68.83465,68.83465,0,0,1,18.09015,54.3345q-2.18313-.68887-4.30911-1.54234a64.3937,64.3937,0,0,0-17.09251-49.83153Q567.7695,535.97184,569.38063,534.44086Z" transform="translate(-0.14567 0.85433)"/>
  </g>
  <g id="LWPOLYLINE-14" data-name="LWPOLYLINE">
    <path class="cls-1" d="M546.84963,544.42505q-.495-2.23508-.81885-4.503a64.39369,64.39369,0,0,0,34.60912-39.71831q2.08829.75772,4.21971,1.38751A68.83462,68.83462,0,0,1,546.84963,544.42505Z" transform="translate(-0.14567 0.85433)"/>
  </g>
  <g id="LWPOLYLINE-15" data-name="LWPOLYLINE">
    <path class="cls-1" d="M504.46361,518.65835a64.39371,64.39371,0,0,1,51.70163,10.11322q1.80084-1.41335,3.49026-2.96063a68.83467,68.83467,0,0,0-56.10013-11.50073Q504.07547,516.47,504.46361,518.65835Z" transform="translate(-0.14567 0.85433)"/>
  </g>
  <g id="LWPOLYLINE-16" data-name="LWPOLYLINE">
    <path class="cls-1" d="M453.20908,461.33q2.13047.62948,4.21972,1.38751a64.39369,64.39369,0,0,1,34.60912-39.71831q-.32358-2.26626-.81885-4.503A68.83467,68.83467,0,0,0,453.20908,461.33Z" transform="translate(-0.14567 0.85433)"/>
  </g>
  <g id="LWPOLYLINE-17" data-name="LWPOLYLINE">
    <path class="cls-1" d="M534.51333,548.5323a68.83463,68.83463,0,0,1-56.10013-11.50072q1.68815-1.5462,3.49026-2.96063a64.39371,64.39371,0,0,0,51.70163,10.11322Q533.993,546.37153,534.51333,548.5323Z" transform="translate(-0.14567 0.85433)"/>
  </g>
  <g id="LWPOLYLINE-18" data-name="LWPOLYLINE">
    <path class="cls-1" d="M471.99954,525.441A64.3937,64.3937,0,0,1,454.907,475.6095q-2.12442-.8529-4.30911-1.54234a68.83465,68.83465,0,0,0,18.09015,54.3345Q470.29843,526.87136,471.99954,525.441Z" transform="translate(-0.14567 0.85433)"/>
  </g>
  <g id="LWPOLYLINE-19" data-name="LWPOLYLINE">
    <path class="cls-1" d="M655.915,484.48023q-1.61036,1.5303-3.31147,2.96063a64.3937,64.3937,0,1,1-111.16213,38.12927q-2.12442-.85291-4.30911-1.54234A68.83464,68.83464,0,1,0,655.915,484.48023Z" transform="translate(-0.14567 0.85433)"/>
  </g>
  <g id="LWPOLYLINE-20" data-name="LWPOLYLINE">
    <path class="cls-1" d="M457.4288,562.63875a64.39369,64.39369,0,0,1,34.60912-39.71831q-.32358-2.26626-.81885-4.503a68.83467,68.83467,0,0,0-38.01,42.83377Q455.33955,561.88072,457.4288,562.63875Z" transform="translate(-0.14567 0.85433)"/>
  </g>
  <g id="LWPOLYLINE-21" data-name="LWPOLYLINE">
    <path class="cls-1" d="M414.40208,289.01158q-2.18313-.68887-4.30911-1.54234A64.3937,64.3937,0,0,0,284.3601,262.875q-2.08828-.75772-4.21971-1.38751a68.83464,68.83464,0,0,1,134.26169,27.52412Z" transform="translate(-0.14567 0.85433)"/>
  </g>
  <g id="LWPOLYLINE-22" data-name="LWPOLYLINE">
    <path class="cls-1" d="M494.10555,650.08566a64.3937,64.3937,0,1,1-88.602-77.20459q-.32358-2.26626-.81885-4.503a68.83464,68.83464,0,1,0,93.64055,83.09507Q496.19481,650.8437,494.10555,650.08566Z" transform="translate(-0.14567 0.85433)"/>
  </g>
  <g id="LWPOLYLINE-23" data-name="LWPOLYLINE">
    <path class="cls-1" d="M277.52922,274.22464q2.18313.68887,4.30911,1.54234a64.3937,64.3937,0,0,0,17.09251,49.83153q-1.70034,1.42965-3.31147,2.96063A68.83465,68.83465,0,0,1,277.52922,274.22464Z" transform="translate(-0.14567 0.85433)"/>
  </g>
  <g id="LWPOLYLINE-24" data-name="LWPOLYLINE">
    <path class="cls-1" d="M498.32526,451.63065a68.83462,68.83462,0,0,1-38.01,42.83377q-.495-2.23507-.81885-4.503a64.39372,64.39372,0,0,0,34.60912-39.71831Q496.19384,451.00087,498.32526,451.63065Z" transform="translate(-0.14567 0.85433)"/>
  </g>
  <g id="LWPOLYLINE-25" data-name="LWPOLYLINE">
    <path class="cls-1" d="M366.67474,311.44809q2.13045.62948,4.21971,1.38751a64.39369,64.39369,0,0,1,34.60912-39.71831q-.32358-2.26626-.81885-4.503A68.83462,68.83462,0,0,0,366.67474,311.44809Z" transform="translate(-0.14567 0.85433)"/>
  </g>
  <g id="LWPOLYLINE-26" data-name="LWPOLYLINE">
    <path class="cls-1" d="M447.07074,494.22354a64.39371,64.39371,0,0,1-51.70163-10.11322q-1.80084,1.41334-3.49026,2.96063A68.83463,68.83463,0,0,0,447.979,498.57167Q447.45889,496.41191,447.07074,494.22354Z" transform="translate(-0.14567 0.85433)"/>
  </g>
  <g id="LWPOLYLINE-27" data-name="LWPOLYLINE">
    <path class="cls-1" d="M330.48667,514.31021a68.83467,68.83467,0,0,1,56.10013,11.50073q-1.68815,1.5462-3.49026,2.96063a64.39371,64.39371,0,0,0-51.70163-10.11322Q331.007,516.471,330.48667,514.31021Z" transform="translate(-0.14567 0.85433)"/>
  </g>
  <g id="LWPOLYLINE-28" data-name="LWPOLYLINE">
    <path class="cls-1" d="M587.47078,388.93284q-2.18313-.68887-4.30911-1.54234A64.3937,64.3937,0,0,0,566.06916,337.559q1.70035-1.42965,3.31147-2.96063A68.83465,68.83465,0,0,1,587.47078,388.93284Z" transform="translate(-0.14567 0.85433)"/>
  </g>
  <g id="LWPOLYLINE-29" data-name="LWPOLYLINE">
    <path class="cls-1" d="M360.53639,544.18417A64.39371,64.39371,0,0,1,308.83476,534.071q-1.80084,1.41334-3.49026,2.96063a68.83463,68.83463,0,0,0,56.10013,11.50072Q360.92454,546.37254,360.53639,544.18417Z" transform="translate(-0.14567 0.85433)"/>
  </g>
  <g id="LWPOLYLINE-30" data-name="LWPOLYLINE">
    <path class="cls-1" d="M295.61937,428.4804q1.61036-1.5303,3.31147-2.96063a64.3937,64.3937,0,0,1-17.09251-49.83153q-2.12442-.8529-4.30911-1.54234A68.83465,68.83465,0,0,0,295.61937,428.4804Z" transform="translate(-0.14567 0.85433)"/>
  </g>
  <g id="LWPOLYLINE-31" data-name="LWPOLYLINE">
    <path class="cls-1" d="M411.79092,301.74876a68.83467,68.83467,0,0,1-38.01,42.83377q-.495-2.23507-.81885-4.503a64.39369,64.39369,0,0,0,34.60912-39.71831Q409.65949,301.119,411.79092,301.74876Z" transform="translate(-0.14567 0.85433)"/>
  </g>
  <g id="LWPOLYLINE-32" data-name="LWPOLYLINE">
    <path class="cls-1" d="M218.81015,387.14969q1.68814-1.5462,3.49026-2.96063A64.39371,64.39371,0,0,0,274.002,394.30228q.38793,2.18736.90824,4.34814A68.83467,68.83467,0,0,1,218.81015,387.14969Z" transform="translate(-0.14567 0.85433)"/>
  </g>
  <g id="LWPOLYLINE-33" data-name="LWPOLYLINE">
    <rect class="cls-1" x="0.35433" y="0.35433" width="864" height="864"/>
  </g>
  <g id="LWPOLYLINE-34" data-name="LWPOLYLINE">
    <path class="cls-1" d="M366.67473,211.52683q2.13046.62948,4.21972,1.38751a64.3937,64.3937,0,1,1,88.602,77.20459q.32358,2.26626.81885,4.503a68.83464,68.83464,0,1,0-93.64055-83.09507Z" transform="translate(-0.14567 0.85433)"/>
  </g>
  <g id="LWPOLYLINE-35" data-name="LWPOLYLINE">
    <path class="cls-1" d="M321.03685,450.24314a64.39369,64.39369,0,0,1-34.60912,39.71831q.32358,2.26626.81885,4.503a68.83464,68.83464,0,0,0,38.01-42.83377Q323.1261,451.00118,321.03685,450.24314Z" transform="translate(-0.14567 0.85433)"/>
  </g>
  <g id="LWPOLYLINE-36" data-name="LWPOLYLINE">
    <path class="cls-1" d="M453.20908,361.40872q2.13047.62947,4.21972,1.38751a64.39369,64.39369,0,0,1,34.60912-39.71831q-.32358-2.26626-.81885-4.503A68.83467,68.83467,0,0,0,453.20908,361.40872Z" transform="translate(-0.14567 0.85433)"/>
  </g>
  <g id="LWPOLYLINE-37" data-name="LWPOLYLINE">
    <path class="cls-1" d="M284.3601,462.71749a64.39369,64.39369,0,0,1,34.60912-39.71831q-.32358-2.26626-.81885-4.503a68.83462,68.83462,0,0,0-38.01,42.83377Q282.27084,461.95946,284.3601,462.71749Z" transform="translate(-0.14567 0.85433)"/>
  </g>
  <g id="LWPOLYLINE-38" data-name="LWPOLYLINE">
    <path class="cls-1" d="M539.74343,411.36935q2.13046.62948,4.21972,1.38751a64.39369,64.39369,0,0,1,34.60912-39.71831q-.32358-2.26626-.81885-4.503A68.83464,68.83464,0,0,0,539.74343,411.36935Z" transform="translate(-0.14567 0.85433)"/>
  </g>
  <g id="LWPOLYLINE-39" data-name="LWPOLYLINE">
    <path class="cls-1" d="M274.002,594.1448a64.3937,64.3937,0,1,1,22.56015-115.33386q1.80084-1.41334,3.49026-2.96063a68.83464,68.83464,0,1,0-25.14217,122.64262Q274.39019,596.33317,274.002,594.1448Z" transform="translate(-0.14567 0.85433)"/>
  </g>
  <g id="LWPOLYLINE-40" data-name="LWPOLYLINE">
    <path class="cls-1" d="M590.08972,364.42833q.52009,2.15976.90824,4.34813a64.39371,64.39371,0,0,1,51.70163,10.11322q1.80084-1.41336,3.49026-2.96063A68.83463,68.83463,0,0,0,590.08972,364.42833Z" transform="translate(-0.14567 0.85433)"/>
  </g>
  <g id="LWPOLYLINE-41" data-name="LWPOLYLINE">
    <path class="cls-1" d="M325.25657,551.55191a68.83464,68.83464,0,0,1-38.01,42.83377q-.495-2.23507-.81885-4.503a64.39369,64.39369,0,0,0,34.60912-39.71831Q323.12514,550.92212,325.25657,551.55191Z" transform="translate(-0.14567 0.85433)"/>
  </g>
  <g id="LWPOLYLINE-42" data-name="LWPOLYLINE">
    <path class="cls-1" d="M366.67473,411.36935q2.13046.62948,4.21972,1.38751a64.39369,64.39369,0,0,1,34.60912-39.71831q-.32358-2.26626-.81885-4.503A68.83467,68.83467,0,0,0,366.67473,411.36935Z" transform="translate(-0.14567 0.85433)"/>
  </g>
  <g id="LWPOLYLINE-43" data-name="LWPOLYLINE">
    <path class="cls-1" d="M309.77758,484.48023a68.83465,68.83465,0,0,1,18.09015,54.3345q-2.18313-.68888-4.30911-1.54234a64.3937,64.3937,0,0,0-17.09251-49.83153Q308.16646,486.01121,309.77758,484.48023Z" transform="translate(-0.14567 0.85433)"/>
  </g>
  <g id="LWPOLYLINE-44" data-name="LWPOLYLINE">
    <path class="cls-1" d="M396.31193,334.59834q-1.61036,1.5303-3.31147,2.96063A64.3937,64.3937,0,0,1,410.093,387.3905q2.12442.85292,4.30911,1.54234A68.83465,68.83465,0,0,0,396.31193,334.59834Z" transform="translate(-0.14567 0.85433)"/>
  </g>
  <g id="LWPOLYLINE-45" data-name="LWPOLYLINE">
    <path class="cls-1" d="M407.5712,600.125a64.39369,64.39369,0,0,1-34.60912,39.71831q.32358,2.26626.81885,4.503a68.83467,68.83467,0,0,0,38.01-42.83377Q409.66045,600.88307,407.5712,600.125Z" transform="translate(-0.14567 0.85433)"/>
  </g>
  <g id="LWPOLYLINE-46" data-name="LWPOLYLINE">
    <path class="cls-1" d="M361.44463,448.61105q-.5201-2.15977-.90824-4.34814a64.39371,64.39371,0,0,1-51.70163-10.11322q-1.80084,1.41334-3.49026,2.96063A68.83467,68.83467,0,0,0,361.44463,448.61105Z" transform="translate(-0.14567 0.85433)"/>
  </g>
  <g id="LWPOLYLINE-47" data-name="LWPOLYLINE">
    <path class="cls-1" d="M479.53481,587.36212a64.3937,64.3937,0,0,1,17.09251,49.83153q2.12442.8529,4.30911,1.54234a68.83465,68.83465,0,0,0-18.09015-54.3345Q481.23593,585.93179,479.53481,587.36212Z" transform="translate(-0.14567 0.85433)"/>
  </g>
  <g id="LWPOLYLINE-48" data-name="LWPOLYLINE">
    <path class="cls-1" d="M473.12115,375.92905q-1.68815,1.5462-3.49026,2.96063a64.39371,64.39371,0,0,0-51.70163-10.11322q-.38793-2.18736-.90824-4.34813A68.83463,68.83463,0,0,1,473.12115,375.92905Z" transform="translate(-0.14567 0.85433)"/>
  </g>
  <g id="LWPOLYLINE-49" data-name="LWPOLYLINE">
    <path class="cls-1" d="M385.46519,475.4804a64.3937,64.3937,0,0,1-17.09251-49.83153q-2.12442-.8529-4.30911-1.54234a68.83465,68.83465,0,0,0,18.09015,54.3345Q383.76407,476.91073,385.46519,475.4804Z" transform="translate(-0.14567 0.85433)"/>
  </g>
  <g id="LWPOLYLINE-50" data-name="LWPOLYLINE">
    <path class="cls-1" d="M385.46519,575.40166a64.3937,64.3937,0,0,1-17.09251-49.83153q-2.12442-.85291-4.30911-1.54234a68.83465,68.83465,0,0,0,18.09015,54.3345Q383.76407,576.832,385.46519,575.40166Z" transform="translate(-0.14567 0.85433)"/>
  </g>
  <g id="LWPOLYLINE-51" data-name="LWPOLYLINE">
    <path class="cls-1" d="M564.94755,487.071q1.68815-1.5462,3.49026-2.96063a64.3937,64.3937,0,0,0,84.1657-96.59072q1.70034-1.42965,3.31147-2.96063a68.83464,68.83464,0,0,1-90.96743,102.512Z" transform="translate(-0.14567 0.85433)"/>
  </g>
  <g id="LWPOLYLINE-52" data-name="LWPOLYLINE">
    <path class="cls-1" d="M447.979,398.65041q-.52009-2.15976-.90824-4.34813a64.39371,64.39371,0,0,1-51.70163-10.11322q-1.80084,1.41336-3.49026,2.96063A68.83463,68.83463,0,0,0,447.979,398.65041Z" transform="translate(-0.14567 0.85433)"/>
  </g>
  <g id="LWPOLYLINE-53" data-name="LWPOLYLINE">
    <path class="cls-1" d="M366.67473,511.29061a68.83467,68.83467,0,0,1,38.01-42.83377q.495,2.23507.81885,4.503a64.39369,64.39369,0,0,0-34.60912,39.71831Q368.80617,511.92039,366.67473,511.29061Z" transform="translate(-0.14567 0.85433)"/>
  </g>
  <g id="LWPOLYLINE-54" data-name="LWPOLYLINE">
    <path class="cls-1" d="M503.55537,414.389q.5201,2.15977.90824,4.34814a64.39371,64.39371,0,0,1,51.70163,10.11322q1.80084-1.41334,3.49026-2.96063A68.83467,68.83467,0,0,0,503.55537,414.389Z" transform="translate(-0.14567 0.85433)"/>
  </g>
  <g id="LWPOLYLINE-55" data-name="LWPOLYLINE">
    <path class="cls-1" d="M417.92926,468.69772a64.39371,64.39371,0,0,1,51.70163,10.11322q1.80084-1.41334,3.49026-2.96063A68.83467,68.83467,0,0,0,417.021,464.34958Q417.54112,466.50936,417.92926,468.69772Z" transform="translate(-0.14567 0.85433)"/>
  </g>
  <g id="LWPOLYLINE-56" data-name="LWPOLYLINE">
    <path class="cls-1" d="M361.44463,348.68979q-.5201-2.15978-.90824-4.34814a64.39371,64.39371,0,0,1-51.70163-10.11322q-1.80084,1.41334-3.49026,2.96063A68.83467,68.83467,0,0,0,361.44463,348.68979Z" transform="translate(-0.14567 0.85433)"/>
  </g>
  <g id="LWPOLYLINE-57" data-name="LWPOLYLINE">
    <path class="cls-1" d="M318.15037,318.575q.495,2.23507.81885,4.503a64.39369,64.39369,0,0,0-34.60912,39.71831q-2.08828-.75772-4.21971-1.38751A68.83462,68.83462,0,0,1,318.15037,318.575Z" transform="translate(-0.14567 0.85433)"/>
  </g>
  <g id="LWPOLYLINE-58" data-name="LWPOLYLINE">
    <path class="cls-1" d="M584.85961,601.51254a68.83464,68.83464,0,0,1-134.26169-27.52413q2.18313.68889,4.30911,1.54235A64.3937,64.3937,0,0,0,580.6399,600.125Q582.72819,600.88276,584.85961,601.51254Z" transform="translate(-0.14567 0.85433)"/>
  </g>
  <g id="LWPOLYLINE-59" data-name="LWPOLYLINE">
    <path class="cls-1" d="M386.5868,325.96842q-1.68815,1.5462-3.49026,2.96063a64.39371,64.39371,0,0,0-51.70163-10.11322q-.38793-2.18736-.90824-4.34813A68.83463,68.83463,0,0,1,386.5868,325.96842Z" transform="translate(-0.14567 0.85433)"/>
  </g>
  <g id="LWPOLYLINE-60" data-name="LWPOLYLINE">
    <path class="cls-1" d="M209.085,478.441a68.83464,68.83464,0,0,1,90.96743-102.512q-1.68814,1.5462-3.49026,2.96063a64.3937,64.3937,0,0,0-84.1657,96.59072Q210.69615,476.91005,209.085,478.441Z" transform="translate(-0.14567 0.85433)"/>
  </g>
  <g id="LWPOLYLINE-61" data-name="LWPOLYLINE">
    <path class="cls-1" d="M295.61937,528.40166a68.83465,68.83465,0,0,1-18.09015-54.3345q2.18313.68887,4.30911,1.54234A64.3937,64.3937,0,0,0,298.93084,525.441Q297.2305,526.87068,295.61937,528.40166Z" transform="translate(-0.14567 0.85433)"/>
  </g>
  <g id="LWPOLYLINE-62" data-name="LWPOLYLINE">
    <path class="cls-1" d="M396.31193,434.5196a68.83465,68.83465,0,0,1,18.09015,54.3345q-2.18313-.68887-4.30911-1.54234a64.3937,64.3937,0,0,0-17.09251-49.83153Q394.70082,436.05058,396.31193,434.5196Z" transform="translate(-0.14567 0.85433)"/>
  </g>
  <g id="LWPOLYLINE-63" data-name="LWPOLYLINE">
    <path class="cls-1" d="M209.085,378.51977q1.61036-1.5303,3.31147-2.96063a64.3937,64.3937,0,1,1,111.16213-38.12927q2.12442.85291,4.30911,1.54234A68.83464,68.83464,0,1,0,209.085,378.51977Z" transform="translate(-0.14567 0.85433)"/>
  </g>
  <g id="LWPOLYLINE-64" data-name="LWPOLYLINE">
    <path class="cls-1" d="M503.55537,314.4677q.5201,2.15976.90824,4.34813a64.39371,64.39371,0,0,1,51.70163,10.11322q1.80084-1.41334,3.49026-2.96063A68.83463,68.83463,0,0,0,503.55537,314.4677Z" transform="translate(-0.14567 0.85433)"/>
  </g>
  <g id="LWPOLYLINE-65" data-name="LWPOLYLINE">
    <path class="cls-1" d="M330.48667,414.389a68.83467,68.83467,0,0,1,56.10013,11.50073q-1.68815,1.5462-3.49026,2.96063a64.39371,64.39371,0,0,0-51.70163-10.11322Q331.007,416.54973,330.48667,414.389Z" transform="translate(-0.14567 0.85433)"/>
  </g>
  <g id="LWPOLYLINE-66" data-name="LWPOLYLINE">
    <path class="cls-1" d="M364.06357,224.264q2.18313.68887,4.30911,1.54234a64.3937,64.3937,0,0,0,17.09251,49.83153q-1.70036,1.42965-3.31147,2.96063A68.83465,68.83465,0,0,1,364.06357,224.264Z" transform="translate(-0.14567 0.85433)"/>
  </g>
  <g id="LWPOLYLINE-67" data-name="LWPOLYLINE">
    <path class="cls-1" d="M407.5712,500.20377a64.39369,64.39369,0,0,1-34.60912,39.71831q.32358,2.26626.81885,4.503a68.83467,68.83467,0,0,0,38.01-42.83377Q409.66045,500.96181,407.5712,500.20377Z" transform="translate(-0.14567 0.85433)"/>
  </g>
  <g id="LWPOLYLINE-68" data-name="LWPOLYLINE">
    <path class="cls-1" d="M539.74343,311.44809q2.13046.62948,4.21972,1.38751a64.39369,64.39369,0,0,1,34.60912-39.71831q-.32358-2.26626-.81885-4.503A68.83464,68.83464,0,0,0,539.74343,311.44809Z" transform="translate(-0.14567 0.85433)"/>
  </g>
  <g id="LWPOLYLINE-69" data-name="LWPOLYLINE">
    <path class="cls-1" d="M274.91028,498.57167A68.83463,68.83463,0,0,1,218.81015,487.071q1.68814-1.5462,3.49026-2.96063A64.39371,64.39371,0,0,0,274.002,494.22354Q274.39,496.4109,274.91028,498.57167Z" transform="translate(-0.14567 0.85433)"/>
  </g>
  <g id="LWPOLYLINE-70" data-name="LWPOLYLINE">
    <path class="cls-1" d="M500.93643,338.97221q-2.18313-.68887-4.30911-1.54234a64.3937,64.3937,0,0,0-17.09251-49.83153q1.70036-1.42965,3.31147-2.96063A68.83465,68.83465,0,0,1,500.93643,338.97221Z" transform="translate(-0.14567 0.85433)"/>
  </g>
  <g id="LWPOLYLINE-71" data-name="LWPOLYLINE">
    <path class="cls-1" d="M309.77758,384.559a68.83465,68.83465,0,0,1,18.09015,54.3345q-2.18313-.68887-4.30911-1.54234a64.3937,64.3937,0,0,0-17.09251-49.83153Q308.16646,386.09,309.77758,384.559Z" transform="translate(-0.14567 0.85433)"/>
  </g>
  <g id="LWPOLYLINE-72" data-name="LWPOLYLINE">
    <path class="cls-1" d="M468.68807,328.55914q1.61036-1.5303,3.31147-2.96063A64.3937,64.3937,0,0,1,454.907,275.767q-2.12442-.8529-4.30911-1.54234A68.83465,68.83465,0,0,0,468.68807,328.55914Z" transform="translate(-0.14567 0.85433)"/>
  </g>
  <g id="LWPOLYLINE-73" data-name="LWPOLYLINE">
    <path class="cls-1" d="M504.46361,218.89457a64.3937,64.3937,0,0,1,41.56717,121.185q.32358,2.26626.81885,4.503a68.83464,68.83464,0,0,0-43.29426-130.03609Q504.07547,216.7062,504.46361,218.89457Z" transform="translate(-0.14567 0.85433)"/>
  </g>
  <g id="LWPOLYLINE-74" data-name="LWPOLYLINE">
    <path class="cls-1" d="M382.15372,378.51977q1.61035-1.5303,3.31147-2.96063a64.3937,64.3937,0,0,1-17.09251-49.83153q-2.12442-.8529-4.30911-1.54234A68.83465,68.83465,0,0,0,382.15372,378.51977Z" transform="translate(-0.14567 0.85433)"/>
  </g>
  <g id="LWPOLYLINE-75" data-name="LWPOLYLINE">
    <path class="cls-1" d="M534.51333,348.68979a68.83467,68.83467,0,0,1-56.10013-11.50073q1.68815-1.5462,3.49026-2.96063a64.39371,64.39371,0,0,0,51.70163,10.11322Q533.993,346.529,534.51333,348.68979Z" transform="translate(-0.14567 0.85433)"/>
  </g>
  <g id="LWPOLYLINE-76" data-name="LWPOLYLINE">
    <path class="cls-1" d="M555.22242,378.51977q1.61035-1.5303,3.31147-2.96063a64.3937,64.3937,0,0,1-17.09251-49.83153q-2.12442-.8529-4.30911-1.54234A68.83465,68.83465,0,0,0,555.22242,378.51977Z" transform="translate(-0.14567 0.85433)"/>
  </g>
  <g id="LWPOLYLINE-77" data-name="LWPOLYLINE">
    <path class="cls-1" d="M590.08972,264.50707a68.83464,68.83464,0,1,1-25.14217,122.64262q1.68815-1.5462,3.49026-2.96063A64.3937,64.3937,0,1,0,590.998,268.8552Q590.61,266.66784,590.08972,264.50707Z" transform="translate(-0.14567 0.85433)"/>
  </g>
  <g id="LWPOLYLINE-78" data-name="LWPOLYLINE">
    <path class="cls-1" d="M325.25657,351.70939q-2.13047-.62947-4.21972-1.38751a64.39369,64.39369,0,0,1-34.60912,39.71831q.32358,2.26626.81885,4.503A68.83464,68.83464,0,0,0,325.25657,351.70939Z" transform="translate(-0.14567 0.85433)"/>
  </g>
  <g id="LWPOLYLINE-79" data-name="LWPOLYLINE">
    <path class="cls-1" d="M491.21907,218.65369q.495,2.23507.81885,4.503A64.39372,64.39372,0,0,0,457.4288,262.875q-2.08829-.75772-4.21972-1.38751A68.83467,68.83467,0,0,1,491.21907,218.65369Z" transform="translate(-0.14567 0.85433)"/>
  </g>
  <g id="LWPOLYLINE-80" data-name="LWPOLYLINE">
    <path class="cls-1" d="M417.92926,568.619a64.39371,64.39371,0,0,1,51.70163,10.11322q1.80084-1.41335,3.49026-2.96063A68.83467,68.83467,0,0,0,417.021,564.27084Q417.54112,566.43062,417.92926,568.619Z" transform="translate(-0.14567 0.85433)"/>
  </g>
  <g id="LWPOLYLINE-81" data-name="LWPOLYLINE">
    <path class="cls-1" d="M473.12115,276.00779q-1.68815,1.5462-3.49026,2.96063a64.39371,64.39371,0,0,0-51.70163-10.11322q-.38793-2.18736-.90824-4.34813A68.83463,68.83463,0,0,1,473.12115,276.00779Z" transform="translate(-0.14567 0.85433)"/>
  </g>
  <g id="LWPOLYLINE-82" data-name="LWPOLYLINE">
    <path class="cls-1" d="M393.00046,537.40149A64.3937,64.3937,0,0,1,410.093,587.233q2.12442.8529,4.30911,1.54234a68.83465,68.83465,0,0,0-18.09015-54.3345Q394.70158,535.97116,393.00046,537.40149Z" transform="translate(-0.14567 0.85433)"/>
  </g>
  <g id="LWPOLYLINE-83" data-name="LWPOLYLINE">
    <path class="cls-1" d="M361.44463,648.45356a68.83464,68.83464,0,0,1-43.29426-130.03609q.495,2.23507.81885,4.503a64.3937,64.3937,0,0,0,41.56717,121.185Q360.92432,646.29279,361.44463,648.45356Z" transform="translate(-0.14567 0.85433)"/>
  </g>
  <g id="LWPOLYLINE-84" data-name="LWPOLYLINE">
    <path class="cls-1" d="M447.979,298.72915q-.52009-2.15976-.90824-4.34813a64.39371,64.39371,0,0,1-51.70163-10.11322q-1.80084,1.41334-3.49026,2.96063A68.83463,68.83463,0,0,0,447.979,298.72915Z" transform="translate(-0.14567 0.85433)"/>
  </g>
  <g id="LWPOLYLINE-85" data-name="LWPOLYLINE">
    <path class="cls-1" d="M539.74343,511.29061q2.13046.62947,4.21972,1.38751a64.39369,64.39369,0,0,1,34.60912-39.71831q-.32358-2.26626-.81885-4.503A68.83464,68.83464,0,0,0,539.74343,511.29061Z" transform="translate(-0.14567 0.85433)"/>
  </g>
</svg>
