0
SECTION
2
HEADER
9
$INSUNITS
70
4
9
$ACADVER
1
AC1014
9
$HANDSEED
5
FFFF
0
ENDSEC
0
SECTION
2
TABLES
0
TABLE
2
VPORT
5
8
100
AcDbSymbolTable
0
ENDTAB
0
TABLE
2
LTYPE
5
5
100
AcDbSymbolTable
0
LTYPE
5
14
100
AcDbSymbolTableRecord
100
AcDbLinetypeTableRecord
2
BYBLOCK
70
0
0
LTYPE
5
15
100
AcDbSymbolTableRecord
100
AcDbLinetypeTableRecord
2
BYLAYER
70
0
0
ENDTAB
0
TABLE
2
LAYER
5
2
100
AcDbSymbolTable
70
2
0
LAYER
5
50
100
AcDbSymbolTableRecord
100
AcDbLayerTableRecord
2
0
70
0
6
CONTINUOUS
0
ENDTAB
0
TABLE
2
STYLE
5
3
100
AcDbSymbolTable
70
1
0
STYLE
5
11
100
AcDbSymbolTableRecord
100
AcDbTextStyleTableRecord
2
STANDARD
70
0
0
ENDTAB
0
TABLE
2
VIEW
5
6
100
AcDbSymbolTable
70
0
0
ENDTAB
0
TABLE
2
UCS
5
7
100
AcDbSymbolTable
70
0
0
ENDTAB
0
TABLE
2
APPID
5
9
100
AcDbSymbolTable
70
2
0
APPID
5
12
100
AcDbSymbolTableRecord
100
AcDbRegAppTableRecord
2
ACAD
70
0
0
ENDTAB
0
TABLE
2
DIMSTYLE
5
A
100
AcDbSymbolTable
70
1
0
ENDTAB
0
TABLE
2
BLOCK_RECORD
5
1
100
AcDbSymbolTable
70
1
0
BLOCK_RECORD
5
1F
100
AcDbSymbolTableRecord
100
AcDbBlockTableRecord
2
*MODEL_SPACE
0
BLOCK_RECORD
5
1B
100
AcDbSymbolTableRecord
100
AcDbBlockTableRecord
2
*PAPER_SPACE
0
ENDTAB
0
ENDSEC
0
SECTION
2
BLOCKS
0
BLOCK
5
20
100
AcDbEntity
100
AcDbBlockBegin
2
*MODEL_SPACE
0
ENDBLK
5
21
100
AcDbEntity
100
AcDbBlockEnd
0
BLOCK
5
1C
100
AcDbEntity
100
AcDbBlockBegin
2
*PAPER_SPACE
0
ENDBLK
5
1D
100
AcDbEntity
100
AcDbBlockEnd
0
ENDSEC
0
SECTION
2
ENTITIES
0
LWPOLYLINE
5
100
100
AcDbEntity
8
0
100
AcDbPolyline
90
4
70
1
43
0.0
10
75.385030617407779
20
-15.64580378250599
42
-0.019032024700349762
10
74.153743541998594
20
-16.690248226950391
42
0.21388531284168552
10
55.914558317441333
20
-13.122529454208273
42
0.015197745424775659
10
55.594150277584319
20
-11.58860356950537
42
-0.21785855142235402
0
LWPOLYLINE
5
101
100
AcDbEntity
8
0
100
AcDbPolyline
90
4
70
1
43
0.0
10
21.733067938828373
20
-41.862163217186534
42
-0.21388531284168577
10
9.5237402357964207
20
-55.873901579611868
42
0.019032024700345745
10
9.8126121198222513
20
-57.462449688489912
42
0.21785855142235383
10
23.221690742432152
20
-42.351644657445064
42
-0.015197745424775234
0
LWPOLYLINE
5
102
100
AcDbEntity
8
0
100
AcDbPolyline
90
4
70
1
43
0.0
10
23.221690742432198
20
28.14835534255494
42
-0.015197745424775679
10
21.733067938828391
20
28.637836782813469
42
-0.21388531284168563
10
9.5237402357964474
20
14.626098420388141
42
0.019032024700347573
10
9.8126121198222549
20
13.037550311510095
42
0.21785855142235414
0
LWPOLYLINE
5
103
100
AcDbEntity
8
0
100
AcDbPolyline
90
4
70
1
43
0.0
10
5.4606406892186223
20
-58.911396430494705
42
-0.21785855142235414
10
-14.330239650604923
20
-54.85419621749412
42
-0.019032024700347205
10
-13.098952575195664
20
-53.809751773049648
42
0.21388531284168538
10
5.1402326493615824
20
-57.377470545791752
42
0.015197745424773831
0
LWPOLYLINE
5
104
100
AcDbEntity
8
0
100
AcDbPolyline
90
4
70
1
43
0.0
10
53.749086225833658
20
10.52335534255489
42
-0.015197745424775679
10
52.260463422230082
20
11.012836782813338
42
-0.21388531284168763
10
40.051135719197916
20
-2.9989015796118861
42
0.019032024700347573
10
40.340007603223725
20
-4.5874496884899312
42
0.21785855142235591
0
LWPOLYLINE
5
105
100
AcDbEntity
8
0
100
AcDbPolyline
90
4
70
1
43
0.0
10
17.76105005321353
20
-18.690248226950349
42
-0.21785855142235439
10
24.142851770427107
20
-37.858253470995834
42
-0.019032024700347986
10
22.622692810992085
20
-37.314149806562227
42
0.21388531284168569
10
16.592835289466773
20
-19.734692671394789
42
0.015197745424775203
0
LWPOLYLINE
5
106
100
AcDbEntity
8
0
100
AcDbPolyline
90
4
70
1
43
0.0
10
54.670247253828464
20
-20.23325347099599
42
-0.019032024700348652
10
53.150088294393541
20
-19.689149806562231
42
0.21388531284168527
10
47.120230772868254
20
-2.1096926713948272
42
0.015197745424775203
10
48.288445536614979
20
-1.065248226950406
42
-0.21785855142235391
0
LWPOLYLINE
5
107
100
AcDbEntity
8
0
100
AcDbPolyline
90
4
70
1
43
0.0
10
13.934560193934644
20
2.1096926713947473
42
-0.21388531284168205
10
7.9047026724093783
20
19.68914980656222
42
0.019032024700347205
10
6.3845437129743665
20
20.233253470995809
42
0.21785855142235067
10
12.766345430187929
20
1.0652482269503578
42
-0.015197745424775234
0
LWPOLYLINE
5
108
100
AcDbEntity
8
0
100
AcDbPolyline
90
4
70
1
43
0.0
10
24.142851770427114
20
-2.6082534709958605
42
-0.019032024700347986
10
22.622692810992099
20
-2.0641498065622281
42
0.21388531284168566
10
16.592835289466787
20
15.515307328605203
42
0.015197745424775659
10
17.761050053213548
20
16.559751773049648
42
-0.21785855142235414
0
LWPOLYLINE
5
109
100
AcDbEntity
8
0
100
AcDbPolyline
90
4
70
1
43
0.0
10
35.98803617262017
20
-6.0363964304950146
42
-0.21785855142235311
10
16.197155832796579
20
-1.979196217494098
42
-0.019032024700347986
10
17.428442908205795
20
-0.93475177304966017
42
0.21388531284168447
10
35.66762813276307
20
-4.5024705457917786
42
0.015197745424774287
0
LWPOLYLINE
5
110
100
AcDbEntity
8
0
100
AcDbPolyline
90
4
70
1
43
0.0
10
43.293740913589417
20
-16.559751773049658
42
-0.015197745424775234
10
44.46195567733465
20
-15.515307328606646
42
-0.21388531284167658
10
38.432098155810827
20
2.0641498065621944
42
0.019032024700347205
10
36.911939196375826
20
2.6082534709958005
42
0.21785855142234534
0
LWPOLYLINE
5
111
100
AcDbEntity
8
0
100
AcDbPolyline
90
4
70
1
43
0.0
10
-7.3057047409692988
20
10.523355342554957
42
-0.21785855142235391
10
-20.714783363579219
20
-4.5874496884899072
42
-0.019032024700347986
10
-21.003655247605025
20
-2.9989015796118634
42
0.21388531284168549
10
-8.7943275445730897
20
11.012836782813453
42
0.015197745424775659
0
LWPOLYLINE
5
112
100
AcDbEntity
8
0
100
AcDbPolyline
90
4
70
1
43
0.0
10
48.288445536614802
20
-36.315248226950558
42
-0.21785855142237542
10
54.67024725382862
20
-55.483253470995862
42
-0.019032024700348652
10
53.150088294393555
20
-54.939149806562241
42
0.21388531284170811
10
47.120230772868226
20
-37.359692671394804
42
0.015197745424775203
0
LWPOLYLINE
5
113
100
AcDbEntity
8
0
100
AcDbPolyline
90
4
70
1
43
0.0
10
40.340007603223675
20
-39.837449688489869
42
-0.019032024700347205
10
40.051135719197887
20
-38.248901579611889
42
0.21388531284168547
10
52.260463422229826
20
-24.237163217186581
42
0.015197745424776117
10
53.749086225833565
20
-24.726644657445071
42
-0.21785855142235402
0
LWPOLYLINE
5
114
100
AcDbEntity
8
0
100
AcDbPolyline
90
4
70
1
43
0.0
10
25.3871628340403
20
-30.747529454210021
42
-0.21388531284169365
10
43.626348058597131
20
-34.315248226950374
42
0.019032024700348666
10
44.85763513400633
20
-33.270803782505908
42
0.21785855142236202
10
25.06675479418287
20
-29.21360356950531
42
-0.015197745424775234
0
LWPOLYLINE
5
115
100
AcDbEntity
8
0
100
AcDbPolyline
90
4
70
1
43
0.0
10
7.305704740969273
20
-10.523355342554934
42
-0.015197745424775679
10
8.7943275445730897
20
-11.012836782813466
42
-0.21388531284168555
10
21.003655247605032
20
2.9989015796118403
42
0.019032024700347937
10
20.714783363579215
20
4.5874496884898956
42
0.217858551422354
0
LWPOLYLINE
5
116
100
AcDbEntity
8
0
100
AcDbPolyline
90
4
70
1
43
0.0
10
35.988036172620077
20
-41.286396430494733
42
-0.2178585514223538
10
16.197155832796682
20
-37.22919621749422
42
-0.019032024700346872
10
17.428442908205785
20
-36.184751773049662
42
0.2138853128416853
10
35.667628132763028
20
-39.75247054579178
42
0.015197745424775659
0
LWPOLYLINE
5
117
100
AcDbEntity
8
0
100
AcDbPolyline
90
4
70
1
43
0.0
10
13.934560193934679
20
-33.140307328605232
42
-0.21388531284168577
10
7.904702672409357
20
-15.560850193437783
42
0.019032024700347205
10
6.3845437129743354
20
-15.016746529004177
42
0.21785855142235427
10
12.766345430187954
20
-34.184751773049797
42
-0.015197745424775234
0
LWPOLYLINE
5
118
100
AcDbEntity
8
0
100
AcDbPolyline
90
4
70
1
43
0.0
10
78.815841020016421
20
-18.690248226950416
42
-0.015197745424776567
10
77.647626256269689
20
-19.734692671394829
42
-1.544158037842668
10
38.43209815581082
20
-33.185850193437794
42
0.019032024700349034
10
36.911939196375798
20
-32.641746529004195
42
1.5570822306336995
0
LWPOLYLINE
5
119
100
AcDbEntity
8
0
100
AcDbPolyline
90
4
70
1
43
0.0
10
8.7943275445745392
20
-46.262836782813928
42
-0.21388531284167184
10
21.003655247605025
20
-32.251098420388146
42
0.019032024700347937
10
20.714783363579194
20
-30.662550311510106
42
0.21785855142234067
10
7.3057047409692633
20
-45.77335534255505
42
-0.01519774542477479
0
LWPOLYLINE
5
120
100
AcDbEntity
8
0
100
AcDbPolyline
90
4
70
1
43
0.0
10
-6.3845437129743239
20
50.266746529004173
42
-0.019032024700347986
10
-7.9047026724093383
20
50.81085019343778
42
0.90270806021765848
10
-52.260463422229819
20
59.487163217186549
42
0.015197745424778858
10
-53.749086225833622
20
59.976644657445064
42
-0.90962166418158963
0
LWPOLYLINE
5
121
100
AcDbEntity
8
0
100
AcDbPolyline
90
4
70
1
43
0.0
10
21.733067938831297
20
-77.112163217187458
42
-1.5441580378426834
10
-9.5237402357964527
20
-49.876098420388146
42
0.019032024700348666
10
-9.8126121198222513
20
-48.287550311510103
42
1.557082230633714
10
23.221690742432077
20
-77.601644657445178
42
-0.015197745424774233
0
LWPOLYLINE
5
122
100
AcDbEntity
8
0
100
AcDbPolyline
90
4
70
1
43
0.0
10
-54.670247253828457
20
55.483253470995805
42
-0.019032024700353426
10
-53.150088294393555
20
54.93914980656222
42
0.21388531284168541
10
-47.120230772868211
20
37.359692671394811
42
0.015197745424774747
10
-48.288445536614915
20
36.315248226950445
42
-0.21785855142235355
0
LWPOLYLINE
5
123
100
AcDbEntity
8
0
100
AcDbPolyline
90
4
70
1
43
0.0
10
23.221690742432173
20
-7.1016446574450676
42
-0.21785855142235391
10
9.81261211982223
20
-22.212449688489897
42
-0.019032024700347986
10
9.5237402357964243
20
-20.623901579611857
42
0.21388531284168549
10
21.73306793882837
20
-6.6121632171865645
42
0.015197745424775203
0
LWPOLYLINE
5
124
100
AcDbEntity
8
0
100
AcDbPolyline
90
4
70
1
43
0.0
10
-23.221690742432145
20
42.35164465744505
42
-0.015197745424775234
10
-21.73306793882837
20
41.862163217186534
42
-0.21388531284168588
10
-9.5237402357964029
20
55.873901579611875
42
0.019032024700348666
10
-9.8126121198222194
20
57.462449688489919
42
0.21785855142235419
0
LWPOLYLINE
5
125
100
AcDbEntity
8
0
100
AcDbPolyline
90
4
70
1
43
0.0
10
5.1402326493615895
20
-22.127470545791752
42
-0.21388531284168555
10
-13.098952575195673
20
-18.559751773049637
42
0.019032024700347937
10
-14.330239650604881
20
-19.604196217494081
42
0.21785855142235402
10
5.4606406892186241
20
-23.661396430494737
42
-0.015197745424775679
0
LWPOLYLINE
5
126
100
AcDbEntity
8
0
100
AcDbPolyline
90
4
70
1
43
0.0
10
-35.988036172620106
20
-29.213603569505295
42
-0.21785855142235391
10
-16.197155832796632
20
-33.270803782505936
42
-0.019032024700346428
10
-17.428442908205806
20
-34.315248226950352
42
0.21388531284168547
10
-35.667628132763063
20
-30.747529454208255
42
0.015197745424775659
0
LWPOLYLINE
5
127
100
AcDbEntity
8
0
100
AcDbPolyline
90
4
70
1
43
0.0
10
54.670247253828506
20
15.016746529004166
42
-0.019032024700346872
10
53.150088294393584
20
15.560850193437748
42
0.21388531284168941
10
47.12023077286824
20
33.140307328605189
42
0.015197745424776117
10
48.288445536614901
20
34.184751773049562
42
-0.21785855142235774
0
LWPOLYLINE
5
128
100
AcDbEntity
8
0
100
AcDbPolyline
90
4
70
1
43
0.0
10
-25.387162834040041
20
-39.752470545791041
42
-0.21388531284167892
10
-43.626348058597131
20
-36.184751773049641
42
0.019032024700347937
10
-44.857635134006337
20
-37.229196217494099
42
0.21785855142234775
10
-25.066754794182845
20
-41.28639643049469
42
-0.015197745424775234
0
LWPOLYLINE
5
129
100
AcDbEntity
8
0
100
AcDbPolyline
90
4
70
1
43
0.0
10
-48.288445536614972
20
1.0652482269503869
42
-0.015197745424775679
10
-47.12023077286824
20
2.1096926713947983
42
-0.2138853128416861
10
-53.150088294393555
20
19.68914980656227
42
0.019032024700347205
10
-54.670247253828578
20
20.233253470995869
42
0.21785855142235452
0
LWPOLYLINE
5
130
100
AcDbEntity
8
0
100
AcDbPolyline
90
4
70
1
43
0.0
10
-7.3057047409692562
20
45.77335534255495
42
-0.21785855142235414
10
-20.714783363579219
20
30.66255031151006
42
-0.019032024700348652
10
-21.003655247605032
20
32.251098420388161
42
0.21388531284168524
10
-8.794327544573072
20
46.26283678281343
42
0.015197745424775203
0
LWPOLYLINE
5
131
100
AcDbEntity
8
0
100
AcDbPolyline
90
4
70
1
43
0.0
10
-75.38503061740785
20
15.645803782505945
42
-0.019032024700347986
10
-74.153743541998637
20
16.690248226950381
42
0.2138853128416163
10
-55.914558317441347
20
13.122529454208259
42
0.015197745424775203
10
-55.594150277584127
20
11.588603569504608
42
-0.21785855142228797
0
LWPOLYLINE
5
132
100
AcDbEntity
8
0
100
AcDbPolyline
90
4
70
1
43
0.0
10
152.40000000000001
20
-152.40000000000003
10
-152.40000000000001
20
-152.40000000000003
10
-152.40000000000001
20
152.40000000000003
10
152.40000000000001
20
152.40000000000003
0
LWPOLYLINE
5
133
100
AcDbEntity
8
0
100
AcDbPolyline
90
4
70
1
43
0.0
10
-23.221690742432187
20
77.601644657445107
42
-0.015197745424775679
10
-21.733067938828377
20
77.112163217186605
42
-1.5441580378426658
10
9.5237402357964562
20
49.876098420388139
42
0.019032024700347937
10
9.8126121198222549
20
48.287550311510103
42
1.5570822306336978
0
LWPOLYLINE
5
134
100
AcDbEntity
8
0
100
AcDbPolyline
90
4
70
1
43
0.0
10
-39.321723027974699
20
-6.6121632171864944
42
-0.21388531284168563
10
-51.531050731006488
20
-20.623901579611807
42
0.019032024700348666
10
-51.242178846980686
20
-22.212449688489848
42
0.21785855142235414
10
-37.833100224370796
20
-7.101644657445048
42
-0.015197745424775234
0
LWPOLYLINE
5
135
100
AcDbEntity
8
0
100
AcDbPolyline
90
4
70
1
43
0.0
10
7.3057047409692935
20
24.726644657445075
42
-0.015197745424775679
10
8.7943275445733455
20
24.237163217186477
42
-0.21388531284168275
10
21.003655247605035
20
38.248901579611825
42
0.019032024700348666
10
20.71478336357923
20
39.837449688489883
42
0.21785855142235158
0
LWPOLYLINE
5
136
100
AcDbEntity
8
0
100
AcDbPolyline
90
4
70
1
43
0.0
10
-52.260463422229734
20
-11.01283678281348
42
-0.21388531284169621
10
-40.051135719197895
20
2.9989015796118834
42
0.019032024700347205
10
-40.340007603223725
20
4.5874496884899045
42
0.21785855142236374
10
-53.749086225833629
20
-10.523355342554927
42
-0.015197745424775234
0
LWPOLYLINE
5
137
100
AcDbEntity
8
0
100
AcDbPolyline
90
4
70
1
43
0.0
10
37.833100224370796
20
7.1016446574450285
42
-0.015197745424775234
10
39.321723027974222
20
6.6121632171866116
42
-0.21388531284166082
10
51.531050731006509
20
20.623901579611843
42
0.019032024700348302
10
51.242178846980693
20
22.212449688489883
42
0.21785855142233029
0
LWPOLYLINE
5
138
100
AcDbEntity
8
0
100
AcDbPolyline
90
4
70
1
43
0.0
10
-55.914558317441362
20
-57.377470545791738
42
-1.5441580378426658
10
-47.955838391607287
20
-16.690248226950331
42
0.019032024700348666
10
-46.724551316198074
20
-15.645803782505885
42
1.5570822306336987
10
-55.594150277584333
20
-58.911396430494733
42
-0.015197745424775679
0
LWPOLYLINE
5
139
100
AcDbEntity
8
0
100
AcDbPolyline
90
4
70
1
43
0.0
10
55.594150277584326
20
23.661396430494641
42
-0.015197745424775234
10
55.91455831744171
20
22.127470545790082
42
-0.21388531284166998
10
74.153743541998637
20
18.559751773049605
42
0.019032024700347937
10
75.385030617407836
20
19.604196217494049
42
0.21785855142233929
0
LWPOLYLINE
5
140
100
AcDbEntity
8
0
100
AcDbPolyline
90
4
70
1
43
0.0
10
-37.833100224370767
20
-42.35164465744505
42
-0.21785855142235402
10
-51.2421788469807
20
-57.462449688489905
42
-0.019032024700347986
10
-51.531050731006509
20
-55.873901579611854
42
0.21388531284168541
10
-39.321723027974571
20
-41.862163217186549
42
0.015197745424775203
0
LWPOLYLINE
5
141
100
AcDbEntity
8
0
100
AcDbPolyline
90
4
70
1
43
0.0
10
-23.221690742432138
20
7.1016446574451244
42
-0.015197745424775679
10
-21.733067938828377
20
6.6121632171865441
42
-0.21388531284168555
10
-9.5237402357964349
20
20.623901579611857
42
0.019032024700347937
10
-9.8126121198222584
20
22.212449688489905
42
0.21785855142235383
0
LWPOLYLINE
5
142
100
AcDbEntity
8
0
100
AcDbPolyline
90
4
70
1
43
0.0
10
-43.293740913589417
20
-18.690248226950317
42
-0.21785855142235414
10
-36.911939196375783
20
-37.858253470995749
42
-0.019032024700347542
10
-38.43209815581082
20
-37.314149806562213
42
0.21388531284168594
10
-44.461955677336171
20
-19.734692671394754
42
0.015197745424774747
0
LWPOLYLINE
5
143
100
AcDbEntity
8
0
100
AcDbPolyline
90
4
70
1
43
0.0
10
-12.766345430187936
20
34.184751773049634
42
-0.015197745424775234
10
-13.934560193934686
20
33.140307328605225
42
-0.21388531284168563
10
-7.9047026724093588
20
15.560850193437783
42
0.019032024700348666
10
-6.3845437129743399
20
15.016746529004184
42
0.217858551422354
0
LWPOLYLINE
5
144
100
AcDbEntity
8
0
100
AcDbPolyline
90
4
70
1
43
0.0
10
-8.7943275445730897
20
-59.487163217186549
42
-0.21388531284168563
10
-21.003655247605046
20
-73.498901579611868
42
0.019032024700347205
10
-20.71478336357923
20
-75.087449688489897
42
0.21785855142235402
10
-7.3057047409693165
20
-59.976644657445064
42
-0.015197745424775234
0
LWPOLYLINE
5
145
100
AcDbEntity
8
0
100
AcDbPolyline
90
4
70
1
43
0.0
10
-25.066754794182842
20
-6.0363964304946851
42
-0.015197745424775234
10
-25.387162834039863
20
-4.5024705457917484
42
-0.21388531284168555
10
-43.626348058597131
20
-0.93475177304963797
42
0.019032024700348302
10
-44.857635134006344
20
-1.9791962174940814
42
0.21785855142235402
0
LWPOLYLINE
5
146
100
AcDbEntity
8
0
100
AcDbPolyline
90
4
70
1
43
0.0
10
16.592835289465828
20
-54.984692671395685
42
-0.21388531284169135
10
22.622692810992092
20
-72.564149806562227
42
0.019032024700346109
10
24.142851770427125
20
-73.10825347099582
42
0.21785855142235977
10
17.761050053213559
20
-53.940248226950345
42
-0.015197745424775679
0
LWPOLYLINE
5
147
100
AcDbEntity
8
0
100
AcDbPolyline
90
4
70
1
43
0.0
10
14.330239650604913
20
19.60419621749412
42
-0.019032024700348652
10
13.098952575195657
20
18.559751773049648
42
0.21388531284168547
10
-5.1402326493615869
20
22.127470545791752
42
0.015197745424775659
10
-5.4606406892186286
20
23.661396430494726
42
-0.21785855142235402
0
LWPOLYLINE
5
148
100
AcDbEntity
8
0
100
AcDbPolyline
90
4
70
1
43
0.0
10
-16.592835289466784
20
-15.515307328605203
42
-0.21388531284168555
10
-22.622692810992099
20
2.0641498065622232
42
0.019032024700348666
10
-24.142851770427129
20
2.6082534709958187
42
0.21785855142235402
10
-17.761050053213545
20
-16.559751773049626
42
-0.015197745424775234
0
LWPOLYLINE
5
149
100
AcDbEntity
8
0
100
AcDbPolyline
90
4
70
1
43
0.0
10
-16.592835289466791
20
-50.765307328605203
42
-0.21388531284168533
10
-22.62269281099211
20
-33.185850193437787
42
0.019032024700347937
10
-24.142851770427129
20
-32.641746529004216
42
0.21785855142235372
10
-17.761050053213548
20
-51.809751773049648
42
-0.015197745424774233
0
LWPOLYLINE
5
150
100
AcDbEntity
8
0
100
AcDbPolyline
90
4
70
1
43
0.0
10
46.724551316198053
20
-19.604196217494106
42
-0.019032024700347986
10
47.955838391607266
20
-18.559751773049669
42
0.90270806021776195
10
77.647626256269731
20
15.515307328605164
42
0.015197745424775659
10
78.815841020015938
20
16.559751773049058
42
-0.909621664181687
0
LWPOLYLINE
5
151
100
AcDbEntity
8
0
100
AcDbPolyline
90
4
70
1
43
0.0
10
5.4606406892186286
20
11.588603569505334
42
-0.01519774542477479
10
5.1402326493616197
20
13.122529454208236
42
-0.21388531284168577
10
-13.098952575195671
20
16.690248226950352
42
0.019032024700347937
10
-14.330239650604874
20
15.64580378250591
42
0.21785855142235414
0
LWPOLYLINE
5
152
100
AcDbEntity
8
0
100
AcDbPolyline
90
4
70
1
43
0.0
10
-23.22169074243218
20
-28.148355342554968
42
-0.21785855142235439
10
-9.8126121198221803
20
-13.037550311510062
42
-0.019032024700347542
10
-9.5237402357964456
20
-14.626098420388125
42
0.21388531284168569
10
-21.733067938828388
20
-28.637836782813459
42
0.015197745424775659
0
LWPOLYLINE
5
153
100
AcDbEntity
8
0
100
AcDbPolyline
90
4
70
1
43
0.0
10
25.066754794182835
20
6.0363964304947215
42
-0.015197745424775679
10
25.387162834039856
20
4.5024705457917271
42
-0.21388531284168577
10
43.626348058597131
20
0.93475177304960688
42
0.019032024700348302
10
44.857635134006344
20
1.9791962174940747
42
0.21785855142235405
0
LWPOLYLINE
5
154
100
AcDbEntity
8
0
100
AcDbPolyline
90
4
70
1
43
0.0
10
-5.1402326493615877
20
-13.122529454208248
42
-0.21388531284168555
10
13.098952575195673
20
-16.690248226950366
42
0.019032024700347937
10
14.330239650604877
20
-15.64580378250592
42
0.21785855142235402
10
-5.4606406892185655
20
-11.58860356950526
42
-0.015197745424775234
0
LWPOLYLINE
5
155
100
AcDbEntity
8
0
100
AcDbPolyline
90
4
70
1
43
0.0
10
-25.06675479418282
20
29.213603569505246
42
-0.015197745424776123
10
-25.387162834039863
20
30.747529454208276
42
-0.21388531284168508
10
-43.626348058597095
20
34.315248226950395
42
0.019032024700347937
10
-44.857635134006308
20
33.270803782505936
42
0.21785855142235358
0
LWPOLYLINE
5
156
100
AcDbEntity
8
0
100
AcDbPolyline
90
4
70
1
43
0.0
10
-40.340007603223221
20
39.837449688490025
42
-0.019032024700351202
10
-40.051135719197902
20
38.248901579611875
42
0.21388531284168499
10
-52.260463422229819
20
24.237163217186598
42
0.015197745424775203
10
-53.749086225833622
20
24.726644657445117
42
-0.21785855142235325
0
LWPOLYLINE
5
157
100
AcDbEntity
8
0
100
AcDbPolyline
90
4
70
1
43
0.0
10
53.749086225837857
20
-59.97664465744635
42
-0.90962166418155455
10
6.3845437129743097
20
-50.266746529004294
42
-0.019032024700347205
10
7.9047026724093605
20
-50.810850193437801
42
0.90270806021762229
10
52.260463422229826
20
-59.487163217186556
42
0.015197745424775203
0
LWPOLYLINE
5
158
100
AcDbEntity
8
0
100
AcDbPolyline
90
4
70
1
43
0.0
10
-16.197155832796653
20
37.229196217494035
42
-0.019032024700346872
10
-17.428442908205799
20
36.184751773049662
42
0.21388531284168516
10
-35.667628132763035
20
39.752470545791766
42
0.015197745424776117
10
-35.988036172620077
20
41.286396430494641
42
-0.21785855142235402
0
LWPOLYLINE
5
159
100
AcDbEntity
8
0
100
AcDbPolyline
90
4
70
1
43
0.0
10
-78.815841020016677
20
-16.559751773049882
42
-0.9096216641815873
10
-46.72455131619769
20
19.604196217493772
42
-0.019032024700344652
10
-47.955838391607237
20
18.559751773049687
42
0.90270806021765548
10
-77.647626256269689
20
-15.51530732860517
42
0.015197745424775203
0
LWPOLYLINE
5
160
100
AcDbEntity
8
0
100
AcDbPolyline
90
4
70
1
43
0.0
10
-48.28844553661439
20
-34.184751773049065
42
-0.21785855142235799
10
-54.670247253828599
20
-15.016746529004161
42
-0.019032024700347986
10
-53.150088294393576
20
-15.560850193437769
42
0.21388531284168982
10
-47.12023077286824
20
-33.140307328605218
42
0.015197745424775203
0
LWPOLYLINE
5
161
100
AcDbEntity
8
0
100
AcDbPolyline
90
4
70
1
43
0.0
10
-12.766345430187297
20
-1.0652482269497576
42
-0.21785855142235019
10
-6.3845437129743452
20
-20.233253470995823
42
-0.019032024700347986
10
-7.9047026724093605
20
-19.68914980656222
42
0.2138853128416815
10
-13.934560193934672
20
-2.1096926713947939
42
0.015197745424775203
0
LWPOLYLINE
5
162
100
AcDbEntity
8
0
100
AcDbPolyline
90
4
70
1
43
0.0
10
-78.815841020016492
20
18.690248226950402
42
-0.015197745424775234
10
-77.647626256263692
20
19.734692671400492
42
-1.5441580378430673
10
-38.432098155810827
20
33.18585019343783
42
0.019032024700347937
10
-36.911939196375805
20
32.64174652900423
42
1.5570822306340797
0
LWPOLYLINE
5
163
100
AcDbEntity
8
0
100
AcDbPolyline
90
4
70
1
43
0.0
10
25.066754794182835
20
41.286396430494712
42
-0.015197745424775679
10
25.387162834039923
20
39.752470545791454
42
-0.21388531284168671
10
43.626348058597124
20
36.184751773049641
42
0.019032024700347205
10
44.85763513400633
20
37.229196217494092
42
0.21785855142235508
0
LWPOLYLINE
5
164
100
AcDbEntity
8
0
100
AcDbPolyline
90
4
70
1
43
0.0
10
-35.988036172620262
20
6.0363964304954409
42
-0.21785855142236019
10
-16.197155832796632
20
1.9791962174940581
42
-0.019032024700347205
10
-17.428442908205792
20
0.93475177304966683
42
0.21388531284169188
10
-35.667628132763042
20
4.5024705457917689
42
0.015197745424775659
0
LWPOLYLINE
5
165
100
AcDbEntity
8
0
100
AcDbPolyline
90
4
70
1
43
0.0
10
-24.142851770427104
20
73.108253470995862
42
-0.019032024700347986
10
-22.622692810992085
20
72.564149806562256
42
0.21388531284168594
10
-16.592835289466777
20
54.984692671394804
42
0.015197745424775659
10
-17.761050053213474
20
53.94024822695043
42
-0.21785855142235414
0
LWPOLYLINE
5
166
100
AcDbEntity
8
0
100
AcDbPolyline
90
4
70
1
43
0.0
10
-8.7943275445729761
20
-24.237163217186581
42
-0.21388531284167506
10
-21.00365524760505
20
-38.248901579611861
42
0.019032024700348666
10
-20.71478336357923
20
-39.837449688489897
42
0.21785855142234398
10
-7.3057047409692721
20
-24.726644657445071
42
-0.015197745424775679
0
LWPOLYLINE
5
167
100
AcDbEntity
8
0
100
AcDbPolyline
90
4
70
1
43
0.0
10
37.83310022437081
20
42.351644657445
42
-0.015197745424775234
10
39.321723027974578
20
41.86216321718652
42
-0.21388531284168533
10
51.531050731006509
20
55.873901579611818
42
0.019032024700347937
10
51.2421788469807
20
57.462449688489855
42
0.21785855142235369
0
LWPOLYLINE
5
168
100
AcDbEntity
8
0
100
AcDbPolyline
90
4
70
1
43
0.0
10
-55.594150277584305
20
-23.66139643049463
42
-0.21785855142235544
10
-75.385030617407736
20
-19.60419621749401
42
-0.019032024700347205
10
-74.15374354199858
20
-18.559751773049616
42
0.21388531284168696
10
-55.914558317441347
20
-22.127470545791702
42
0.015197745424776574
0
LWPOLYLINE
5
169
100
AcDbEntity
8
0
100
AcDbPolyline
90
4
70
1
43
0.0
10
24.142851770427178
20
32.641746529004166
42
-0.019032024700348652
10
22.62269281099211
20
33.185850193437787
42
0.21388531284168558
10
16.592835289466791
20
50.765307328605196
42
0.015197745424775659
10
17.761050053213573
20
51.80975177304969
42
-0.21785855142235427
0
LWPOLYLINE
5
170
100
AcDbEntity
8
0
100
AcDbPolyline
90
4
70
1
43
0.0
10
-43.293740913589474
20
16.559751773049605
42
-0.21785855142235333
10
-36.911939196375876
20
-2.608253470995789
42
-0.019032024700347205
10
-38.432098155810827
20
-2.0641498065622081
42
0.21388531284168466
10
-44.461955677336121
20
15.515307328605241
42
0.015197745424772461
0
LWPOLYLINE
5
171
100
AcDbEntity
8
0
100
AcDbPolyline
90
4
70
1
43
0.0
10
12.766345430187968
20
36.315248226950331
42
-0.015197745424775234
10
13.934560193934713
20
37.359692671394782
42
-0.21388531284168563
10
7.9047026724093747
20
54.939149806562213
42
0.019032024700348666
10
6.3845437129743532
20
55.483253470995813
42
0.21785855142235416
0
LWPOLYLINE
5
172
100
AcDbEntity
8
0
100
AcDbPolyline
90
4
70
1
43
0.0
10
25.387162834039859
20
75.002470545791752
42
-0.90270806021765782
10
40.051135719197923
20
32.251098420388146
42
0.019032024700348666
10
40.340007603223725
20
30.662550311510095
42
0.90962166418158852
10
25.066754794182838
20
76.536396430494705
42
-0.015197745424775234
0
LWPOLYLINE
5
173
100
AcDbEntity
8
0
100
AcDbPolyline
90
4
70
1
43
0.0
10
-17.76105005321353
20
18.69024822695037
42
-0.015197745424775234
10
-16.592835289466795
20
19.734692671394775
42
-0.21388531284168555
10
-22.622692810992113
20
37.314149806562227
42
0.019032024700347937
10
-24.142851770427125
20
37.858253470995827
42
0.217858551422354
0
LWPOLYLINE
5
174
100
AcDbEntity
8
0
100
AcDbPolyline
90
4
70
1
43
0.0
10
35.988036172620106
20
29.213603569505295
42
-0.2178585514223538
10
16.197155832796668
20
33.270803782505915
42
-0.019032024700347205
10
17.428442908205831
20
34.315248226950345
42
0.21388531284168535
10
35.66762813276307
20
30.747529454208255
42
0.015197745424775203
0
LWPOLYLINE
5
175
100
AcDbEntity
8
0
100
AcDbPolyline
90
4
70
1
43
0.0
10
43.293740913589353
20
18.690248226950306
42
-0.015197745424774233
10
44.46195567733615
20
19.734692671394761
42
-0.21388531284168544
10
38.432098155810849
20
37.314149806562199
42
0.019032024700348302
10
36.91193919637584
20
37.858253470995784
42
0.21785855142235383
0
LWPOLYLINE
5
176
100
AcDbEntity
8
0
100
AcDbPolyline
90
4
70
1
43
0.0
10
55.594150277584319
20
58.911396430494648
42
-1.5570822306337
10
46.724551316198045
20
15.645803782505878
42
-0.019032024700345762
10
47.955838391607273
20
16.690248226950324
42
1.5441580378426687
10
55.914558317441355
20
57.377470545791702
42
0.015197745424775203
0
LWPOLYLINE
5
177
100
AcDbEntity
8
0
100
AcDbPolyline
90
4
70
1
43
0.0
10
-37.833100224370732
20
28.148355342554975
42
-0.015197745424775679
10
-39.321723027969149
20
28.63783678281186
42
-0.21388531284165896
10
-51.531050731006488
20
14.626098420388153
42
0.019032024700348666
10
-51.242178846980693
20
13.037550311510099
42
0.21785855142232827
0
LWPOLYLINE
5
178
100
AcDbEntity
8
0
100
AcDbPolyline
90
4
70
1
43
0.0
10
20.714783363579251
20
75.087449688489812
42
-0.019032024700346872
10
21.003655247605025
20
73.498901579611854
42
0.2138853128416853
10
8.7943275445731057
20
59.487163217186563
42
0.015197745424775659
10
7.3057047409693716
20
59.97664465744505
42
-0.2178585514223538
0
LWPOLYLINE
5
179
100
AcDbEntity
8
0
100
AcDbPolyline
90
4
70
1
43
0.0
10
-5.1402326493613462
20
-48.372529454209314
42
-0.21388531284167556
10
13.098952575195668
20
-51.940248226950359
42
0.019032024700347937
10
14.330239650604874
20
-50.895803782505915
42
0.21785855142234475
10
-5.4606406892186179
20
-46.83860356950531
42
-0.015197745424775234
0
LWPOLYLINE
5
180
100
AcDbEntity
8
0
100
AcDbPolyline
90
4
70
1
43
0.0
10
14.330239650604819
20
54.854196217494042
42
-0.019032024700347205
10
13.098952575195657
20
53.809751773049648
42
0.21388531284168513
10
-5.1402326493615691
20
57.377470545791766
42
0.015197745424775659
10
-5.4606406892185966
20
58.911396430494712
42
-0.21785855142235369
0
LWPOLYLINE
5
181
100
AcDbEntity
8
0
100
AcDbPolyline
90
4
70
1
43
0.0
10
-13.934560193934688
20
-37.359692671394811
42
-0.21388531284168519
10
-7.9047026724093694
20
-54.939149806562206
42
0.019032024700347937
10
-6.3845437129743488
20
-55.483253470995805
42
0.21785855142235389
10
-12.766345430187958
20
-36.315248226950402
42
-0.015197745424774233
0
LWPOLYLINE
5
182
100
AcDbEntity
8
0
100
AcDbPolyline
90
4
70
1
43
0.0
10
-25.06675479418282
20
-76.536396430494705
42
-0.90962166418158885
10
-40.340007603223718
20
-30.662550311510103
42
-0.019032024700347986
10
-40.051135719197916
20
-32.251098420388146
42
0.90270806021765793
10
-25.387162834039838
20
-75.002470545791752
42
0.015197745424775203
0
LWPOLYLINE
5
183
100
AcDbEntity
8
0
100
AcDbPolyline
90
4
70
1
43
0.0
10
5.4606406892186303
20
46.838603569505317
42
-0.015197745424775234
10
5.140232649361602
20
48.372529454208255
42
-0.21388531284168555
10
-13.098952575195661
20
51.940248226950359
42
0.019032024700349398
10
-14.330239650604881
20
50.895803782505915
42
0.21785855142235416
0
LWPOLYLINE
5
184
100
AcDbEntity
8
0
100
AcDbPolyline
90
4
70
1
43
0.0
10
37.833100224370838
20
-28.14835534255511
42
-0.01519774542477479
10
39.321723027974549
20
-28.637836782813469
42
-0.21388531284168544
10
51.531050731006488
20
-14.626098420388171
42
0.019032024700347937
10
51.242178846980678
20
-13.037550311510122
42
0.21785855142235383
0
ENDSEC
0
SECTION
2
OBJECTS
0
DICTIONARY
5
C
100
AcDbDictionary
3
ACAD_GROUP
350
D
3
ACAD_MLINESTYLE
350
17
0
DICTIONARY
5
D
100
AcDbDictionary
0
DICTIONARY
5
1A
330
C
100
AcDbDictionary
0
DICTIONARY
5
17
100
AcDbDictionary
0
ENDSEC
0
EOF
