# File produced by Open Asset Import Library (http://www.assimp.sf.net)
# (assimp v3.3.0)

mtllib platen.obj.mtl

# 8 vertex positions
v  0 0 -11
v  0 0 0
v  0 0.5 -11
v  0 0.5 0
v  17 0 -11
v  17 0.5 -11
v  17 0 0
v  17 0.5 0

# 0 UV coordinates

# 6 vertex normals
vn -1 0 0
vn 0 0 -1
vn 1 0 0
vn 0 0 1
vn 0 1 0
vn -0 -1 -0

# Mesh '<STL_BINARY>' with 12 faces
g <STL_BINARY>
usemtl DefaultMaterial
f  1//1 2//1 3//1
f  3//1 2//1 4//1
f  5//2 1//2 6//2
f  6//2 1//2 3//2
f  7//3 5//3 8//3
f  8//3 5//3 6//3
f  2//4 7//4 4//4
f  4//4 7//4 8//4
f  8//5 6//5 4//5
f  4//5 6//5 3//5
f  7//6 2//6 5//6
f  5//6 2//6 1//6

